<?xml version="1.0" encoding="utf-8"?>
<svg version="1.1" id="Layer_1" xmlns="http://www.w3.org/2000/svg" xmlns:xlink="http://www.w3.org/1999/xlink"
	 viewBox="0 0 1700.8 566.9" xml:space="preserve">
<style type="text/css">
	.st0{fill:#F3A628;}
</style>
<path class="st0" d="M97.8,125.3c0-6.3,4.8-11.9,11.9-11.9h14.3c6.3,0,11.9,5.4,11.9,11.9v139.5l153.9-146.4c2-2.4,6.3-4.8,9.3-4.8
	h24.2c8.9,0,13.8,9.9,6,17.3L173.6,276.4l163.2,167.1c3.5,3.5,2.4,15.3-8.4,15.3h-25.1c-3.5,0-7.8-2-8.9-3.5L136,290v156.8
	c0,6.3-5.4,11.9-11.9,11.9h-14.3c-6.9,0-11.9-5.4-11.9-11.9V125.3z"/>
<path class="st0" d="M789.4,122.7c0-4.8,3.9-9.3,9.3-9.3h19.2c4.8,0,9.3,4.5,9.3,9.3v302.7h141.9c5.4,0,9.3,4.5,9.3,9.3V449
	c0,4.8-3.9,9.3-9.3,9.3H798.5c-5.4,0-9.3-4.5-9.3-9.3V122.7H789.4z"/>
<path class="st0" d="M999.5,445.7L1149.4,114c1.5-3,3.9-5.4,8.4-5.4h4.8c4.5,0,6.9,2.4,8.4,5.4l148.8,331.7c3,6.3-0.9,12.9-8.4,12.9
	h-19.7c-4.5,0-7.5-3-8.4-5.4l-36.5-81.4H1072l-35.9,81.4c-0.9,2.4-3.9,5.4-8.4,5.4h-19.7C1000.4,458.5,996.5,452,999.5,445.7z
	 M1233.6,341.2c-24.2-53.6-47.9-108-71.9-161.7h-3.9l-71.9,161.7H1233.6z"/>
<path class="st0" d="M1373.5,122.7c0-4.8,3.9-9.3,9.3-9.3h108c60.2,0,101.1,38.9,101.1,90.7c0,38-25.1,65.6-48.2,78.8
	c26.1,10.8,59.2,35,59.2,80.3c0,55.1-44,95.2-107.5,95.2h-112.3c-5.4,0-9.3-4.5-9.3-9.3V122.7H1373.5z M1499.3,425.4
	c35.9,0,62-27.2,62-62.6c0-35-32-60.7-70.4-60.7h-81.4v123.3H1499.3z M1490.9,268.2c38,0,59.2-27.2,59.2-61.7
	c0-35.6-21.2-59.2-59.2-59.2h-80.3V268h80.3V268.2z"/>
<path class="st0" d="M576.9,456.1c-7.5,0-14.3-5-16.2-12.7c-2.2-8.9,3.2-18.1,12.3-20.3c63.7-15.8,108.2-73,108.2-138.6
	c0-78.8-64.1-142.9-142.9-142.9s-142.9,64.1-142.9,142.9c0,65.8,44.5,122.7,108.2,138.6c8.9,2.2,14.5,11.4,12.3,20.3
	c-2.2,8.9-11.4,14.5-20.3,12.3c-78.6-19.6-133.6-90.2-133.6-171.2c0-97.2,79.2-176.6,176.6-176.6s176.6,79.2,176.6,176.6
	c0,81.2-54.9,151.6-133.6,171.2C579.7,455.9,578.4,456.1,576.9,456.1z"/>
</svg>
