<?xml version="1.0" standalone="no"?>
<!DOCTYPE svg PUBLIC "-//W3C//DTD SVG 20010904//EN"
 "http://www.w3.org/TR/2001/REC-SVG-20010904/DTD/svg10.dtd">
<svg version="1.0" xmlns="http://www.w3.org/2000/svg"
 width="700.000000pt" height="700.000000pt" viewBox="0 0 700.000000 700.000000"
 preserveAspectRatio="xMidYMid meet">
<metadata>
Created by potrace 1.11, written by Peter Selinger 2001-2013
</metadata>
<g transform="translate(0.000000,700.000000) scale(0.100000,-0.100000)"
fill="#000000" stroke="none">
<path d="M3328 6325 c-2 -2 -43 -6 -93 -9 -49 -4 -97 -9 -105 -11 -8 -2 -37
-6 -65 -10 -27 -3 -102 -17 -165 -31 -1010 -215 -1833 -974 -2134 -1966 -35
-117 -80 -314 -91 -403 -4 -27 -8 -60 -10 -72 -39 -245 -21 -657 41 -947 9
-39 17 -80 20 -92 9 -49 79 -266 111 -349 91 -232 243 -506 385 -690 328 -427
757 -749 1248 -938 173 -66 348 -117 405 -117 211 0 342 251 221 425 -45 66
-81 87 -226 130 -290 86 -542 212 -765 380 -127 95 -290 250 -370 350 -22 28
-43 52 -46 55 -3 3 -30 39 -61 80 -221 302 -377 696 -423 1065 -13 110 -16
162 -16 300 0 176 5 234 37 420 4 26 17 84 29 135 73 302 242 639 448 895 62
76 221 242 282 294 553 467 1243 654 1945 525 596 -109 1151 -474 1487 -979
207 -309 316 -594 378 -980 27 -174 22 -525 -10 -697 -32 -167 -74 -319 -125
-451 -42 -109 -150 -329 -176 -358 -8 -8 -14 -18 -14 -22 0 -13 -101 -157
-170 -242 -82 -101 -215 -237 -305 -311 -33 -27 -62 -52 -65 -55 -3 -3 -48
-35 -100 -71 -215 -148 -424 -249 -659 -320 -162 -48 -198 -65 -239 -113 -55
-62 -67 -93 -67 -180 0 -65 4 -88 24 -125 43 -82 120 -136 210 -147 120 -14
533 134 811 292 73 41 234 143 265 167 370 291 590 532 782 857 147 249 286
592 327 811 2 14 12 59 21 100 37 173 52 358 49 590 -2 113 -5 221 -8 240 -2
19 -7 57 -10 84 -3 27 -11 76 -16 110 -6 34 -13 70 -15 81 -29 166 -105 405
-188 594 -264 598 -724 1089 -1302 1387 -321 166 -631 261 -995 305 -85 10
-484 22 -492 14z"/>
</g>
</svg>
